<mxfile host="app.diagrams.net" modified="2023-05-10T14:41:14.923Z" agent="Mozilla/5.0 (Windows NT 10.0; Win64; x64) AppleWebKit/537.36 (KHTML, like Gecko) Chrome/112.0.0.0 Safari/537.36" etag="jHQF-WKy0JH12cFN0Ol4" version="21.2.9" type="github">
  <diagram name="第 1 页" id="54-xbMOGU5B9-2lUTUZc">
    <mxGraphModel dx="2074" dy="1124" grid="1" gridSize="10" guides="1" tooltips="1" connect="1" arrows="1" fold="1" page="1" pageScale="1" pageWidth="827" pageHeight="1169" math="0" shadow="0">
      <root>
        <mxCell id="0" />
        <mxCell id="1" parent="0" />
        <mxCell id="t49rK2WE6GSj2qDxC9b9-2" value="ProtocolDealTask():&lt;br&gt;接收上位机指令，并处理" style="rounded=0;whiteSpace=wrap;html=1;strokeColor=#666666;fontFamily=Helvetica;fontSize=12;fontColor=#333333;fillColor=#f5f5f5;align=left;" vertex="1" parent="1">
          <mxGeometry x="70" y="190" width="160" height="50" as="geometry" />
        </mxCell>
        <mxCell id="t49rK2WE6GSj2qDxC9b9-5" value="如果接收到拍照指令&lt;br&gt;（命令码 0x01）" style="text;html=1;align=center;verticalAlign=middle;resizable=0;points=[];autosize=1;strokeColor=none;fillColor=none;fontSize=12;fontFamily=Helvetica;fontColor=#333333;" vertex="1" parent="1">
          <mxGeometry x="230" y="90" width="130" height="40" as="geometry" />
        </mxCell>
        <mxCell id="t49rK2WE6GSj2qDxC9b9-7" value="Camera(): 设置拍照参数：&lt;br style=&quot;border-color: var(--border-color);&quot;&gt;&lt;span style=&quot;&quot;&gt;sTakePictureInfo.bTakePictureFlag = true;&lt;/span&gt;&lt;br style=&quot;border-color: var(--border-color);&quot;&gt;&lt;span style=&quot;&quot;&gt;sTakePictureInfo.uCurrentStep = 0;&lt;br&gt;sTakePictureInfo.eCaptureStep = IDLE;&lt;br&gt;&lt;/span&gt;" style="whiteSpace=wrap;html=1;rounded=0;strokeColor=#666666;fontFamily=Helvetica;fontSize=12;fontColor=#333333;fillColor=#f5f5f5;align=left;" vertex="1" parent="1">
          <mxGeometry x="350" y="190" width="240" height="70" as="geometry" />
        </mxCell>
        <mxCell id="t49rK2WE6GSj2qDxC9b9-9" value="" style="curved=1;endArrow=classic;html=1;rounded=0;fontFamily=Helvetica;fontSize=12;fontColor=#333333;exitX=0.5;exitY=0;exitDx=0;exitDy=0;entryX=0.5;entryY=0;entryDx=0;entryDy=0;" edge="1" parent="1" source="t49rK2WE6GSj2qDxC9b9-2" target="t49rK2WE6GSj2qDxC9b9-7">
          <mxGeometry width="50" height="50" relative="1" as="geometry">
            <mxPoint x="390" y="550" as="sourcePoint" />
            <mxPoint x="440" y="500" as="targetPoint" />
            <Array as="points">
              <mxPoint x="270" y="100" />
            </Array>
          </mxGeometry>
        </mxCell>
        <mxCell id="t49rK2WE6GSj2qDxC9b9-10" value="" style="curved=1;endArrow=classic;html=1;rounded=0;fontFamily=Helvetica;fontSize=12;fontColor=#333333;exitX=0.5;exitY=1;exitDx=0;exitDy=0;entryX=0.5;entryY=1;entryDx=0;entryDy=0;" edge="1" parent="1" source="t49rK2WE6GSj2qDxC9b9-7" target="t49rK2WE6GSj2qDxC9b9-2">
          <mxGeometry width="50" height="50" relative="1" as="geometry">
            <mxPoint x="390" y="550" as="sourcePoint" />
            <mxPoint x="440" y="500" as="targetPoint" />
            <Array as="points">
              <mxPoint x="340" y="350" />
            </Array>
          </mxGeometry>
        </mxCell>
        <mxCell id="t49rK2WE6GSj2qDxC9b9-11" value="TakePicturesTask():&lt;br&gt;" style="rounded=0;whiteSpace=wrap;html=1;strokeColor=#666666;fontFamily=Helvetica;fontSize=12;fontColor=#333333;fillColor=#f5f5f5;align=left;" vertex="1" parent="1">
          <mxGeometry x="50" y="610" width="120" height="60" as="geometry" />
        </mxCell>
        <mxCell id="t49rK2WE6GSj2qDxC9b9-12" value="&lt;div&gt;读取 strobeA 和 strobeB 信号&lt;/div&gt;" style="rounded=0;whiteSpace=wrap;html=1;strokeColor=#666666;fontFamily=Helvetica;fontSize=12;fontColor=#333333;fillColor=#f5f5f5;align=left;" vertex="1" parent="1">
          <mxGeometry x="364" y="615" width="100" height="50" as="geometry" />
        </mxCell>
        <mxCell id="t49rK2WE6GSj2qDxC9b9-13" value="" style="curved=1;endArrow=classic;html=1;rounded=0;fontFamily=Helvetica;fontSize=12;fontColor=#333333;exitX=1;exitY=0.5;exitDx=0;exitDy=0;entryX=0;entryY=0.5;entryDx=0;entryDy=0;" edge="1" parent="1" source="t49rK2WE6GSj2qDxC9b9-11" target="t49rK2WE6GSj2qDxC9b9-12">
          <mxGeometry width="50" height="50" relative="1" as="geometry">
            <mxPoint x="390" y="615" as="sourcePoint" />
            <mxPoint x="440" y="565" as="targetPoint" />
            <Array as="points">
              <mxPoint x="220" y="625" />
            </Array>
          </mxGeometry>
        </mxCell>
        <mxCell id="t49rK2WE6GSj2qDxC9b9-14" value="&lt;div&gt;if(bTakePictureFlag == true)&lt;/div&gt;" style="text;html=1;align=center;verticalAlign=middle;resizable=0;points=[];autosize=1;strokeColor=none;fillColor=none;fontSize=12;fontFamily=Helvetica;fontColor=#333333;" vertex="1" parent="1">
          <mxGeometry x="180" y="605" width="170" height="30" as="geometry" />
        </mxCell>
        <mxCell id="t49rK2WE6GSj2qDxC9b9-15" value="&lt;div&gt;if((strobeA == false) &amp;amp;&amp;amp; (strobeB == false))&lt;/div&gt;" style="text;html=1;align=center;verticalAlign=middle;resizable=0;points=[];autosize=1;strokeColor=none;fillColor=none;fontSize=12;fontFamily=Helvetica;fontColor=#333333;" vertex="1" parent="1">
          <mxGeometry x="490" y="595" width="250" height="30" as="geometry" />
        </mxCell>
        <mxCell id="t49rK2WE6GSj2qDxC9b9-16" value="" style="curved=1;endArrow=classic;html=1;rounded=0;fontFamily=Helvetica;fontSize=12;fontColor=#333333;exitX=1;exitY=0.5;exitDx=0;exitDy=0;entryX=0;entryY=0.5;entryDx=0;entryDy=0;" edge="1" parent="1" source="t49rK2WE6GSj2qDxC9b9-12" target="t49rK2WE6GSj2qDxC9b9-17">
          <mxGeometry width="50" height="50" relative="1" as="geometry">
            <mxPoint x="510" y="677" as="sourcePoint" />
            <mxPoint x="704" y="677" as="targetPoint" />
            <Array as="points">
              <mxPoint x="580" y="605" />
            </Array>
          </mxGeometry>
        </mxCell>
        <mxCell id="t49rK2WE6GSj2qDxC9b9-17" value="&lt;div&gt;sTakePictureInfo.uCurrentStep = 1;&lt;/div&gt;" style="rounded=0;whiteSpace=wrap;html=1;strokeColor=#666666;fontFamily=Helvetica;fontSize=12;fontColor=#333333;fillColor=#f5f5f5;align=left;" vertex="1" parent="1">
          <mxGeometry x="750" y="625" width="210" height="30" as="geometry" />
        </mxCell>
        <mxCell id="t49rK2WE6GSj2qDxC9b9-19" value="" style="curved=1;endArrow=classic;html=1;rounded=0;fontFamily=Helvetica;fontSize=12;fontColor=#333333;exitX=0.5;exitY=0;exitDx=0;exitDy=0;entryX=1;entryY=0.5;entryDx=0;entryDy=0;" edge="1" parent="1" source="t49rK2WE6GSj2qDxC9b9-12" target="t49rK2WE6GSj2qDxC9b9-20">
          <mxGeometry width="50" height="50" relative="1" as="geometry">
            <mxPoint x="390" y="530" as="sourcePoint" />
            <mxPoint x="610" y="470" as="targetPoint" />
            <Array as="points">
              <mxPoint x="470" y="570" />
              <mxPoint x="460" y="530" />
              <mxPoint x="430" y="510" />
            </Array>
          </mxGeometry>
        </mxCell>
        <mxCell id="t49rK2WE6GSj2qDxC9b9-20" value="InitTakePictureInfo():&lt;br style=&quot;border-color: var(--border-color);&quot;&gt;&lt;span style=&quot;border-color: var(--border-color);&quot;&gt;sTakePictureInfo.bTakePictureFlag = false;&lt;/span&gt;&lt;br style=&quot;border-color: var(--border-color);&quot;&gt;&lt;div style=&quot;&quot;&gt;&lt;span style=&quot;background-color: initial;&quot;&gt;sTakePictureInfo.uCurrentStep = 0;&lt;/span&gt;&lt;/div&gt;&lt;div style=&quot;&quot;&gt;&lt;span style=&quot;background-color: initial;&quot;&gt;sTakePictureInfo.eCaptureStep = IDLE;&lt;br&gt;&lt;/span&gt;&lt;/div&gt;" style="whiteSpace=wrap;html=1;rounded=0;strokeColor=#666666;fontFamily=Helvetica;fontSize=12;fontColor=#333333;fillColor=#f5f5f5;align=left;" vertex="1" parent="1">
          <mxGeometry x="150" y="500" width="240" height="60" as="geometry" />
        </mxCell>
        <mxCell id="t49rK2WE6GSj2qDxC9b9-21" value="&lt;div&gt;if((strobeA == true) || (strobeB == true))&lt;/div&gt;" style="text;html=1;align=center;verticalAlign=middle;resizable=0;points=[];autosize=1;strokeColor=none;fillColor=none;fontSize=12;fontFamily=Helvetica;fontColor=#333333;" vertex="1" parent="1">
          <mxGeometry x="410" y="530" width="230" height="30" as="geometry" />
        </mxCell>
        <mxCell id="t49rK2WE6GSj2qDxC9b9-22" value="" style="curved=1;endArrow=classic;html=1;rounded=0;fontFamily=Helvetica;fontSize=12;fontColor=#333333;exitX=0;exitY=0.5;exitDx=0;exitDy=0;entryX=0.5;entryY=0;entryDx=0;entryDy=0;" edge="1" parent="1" source="t49rK2WE6GSj2qDxC9b9-20" target="t49rK2WE6GSj2qDxC9b9-11">
          <mxGeometry width="50" height="50" relative="1" as="geometry">
            <mxPoint x="390" y="520" as="sourcePoint" />
            <mxPoint x="440" y="470" as="targetPoint" />
            <Array as="points">
              <mxPoint x="100" y="560" />
            </Array>
          </mxGeometry>
        </mxCell>
        <mxCell id="t49rK2WE6GSj2qDxC9b9-23" value="&lt;div&gt;CapturePicture():&lt;/div&gt;&lt;div&gt;uTriggerCount = 0;&lt;/div&gt;&lt;div&gt;uExpCome = 0;&lt;/div&gt;&lt;div&gt;eCamerStatus = CAMER_STATUS_BUTT;&lt;/div&gt;" style="rounded=0;whiteSpace=wrap;html=1;strokeColor=#666666;fontFamily=Helvetica;fontSize=12;fontColor=#333333;fillColor=#f5f5f5;align=left;" vertex="1" parent="1">
          <mxGeometry x="740" y="720" width="240" height="60" as="geometry" />
        </mxCell>
        <mxCell id="t49rK2WE6GSj2qDxC9b9-24" value="" style="curved=1;endArrow=classic;html=1;rounded=0;fontFamily=Helvetica;fontSize=12;fontColor=#333333;exitX=0.5;exitY=1;exitDx=0;exitDy=0;" edge="1" parent="1" source="t49rK2WE6GSj2qDxC9b9-17" target="t49rK2WE6GSj2qDxC9b9-23">
          <mxGeometry width="50" height="50" relative="1" as="geometry">
            <mxPoint x="860" y="750" as="sourcePoint" />
            <mxPoint x="910" y="700" as="targetPoint" />
            <Array as="points">
              <mxPoint x="850" y="690" />
            </Array>
          </mxGeometry>
        </mxCell>
        <mxCell id="t49rK2WE6GSj2qDxC9b9-26" value="&lt;div&gt;&lt;/div&gt;if(sTakePictureInfo.uCurrentStep == 1&lt;span style=&quot;background-color: initial;&quot;&gt;)&lt;/span&gt;" style="text;html=1;align=left;verticalAlign=middle;resizable=0;points=[];autosize=1;strokeColor=none;fillColor=none;fontSize=12;fontFamily=Helvetica;fontColor=#333333;" vertex="1" parent="1">
          <mxGeometry x="860" y="670" width="230" height="30" as="geometry" />
        </mxCell>
        <mxCell id="t49rK2WE6GSj2qDxC9b9-28" value="" style="curved=1;endArrow=classic;html=1;rounded=0;fontFamily=Helvetica;fontSize=12;fontColor=#333333;exitX=0.5;exitY=1;exitDx=0;exitDy=0;entryX=0.5;entryY=0;entryDx=0;entryDy=0;" edge="1" parent="1" source="t49rK2WE6GSj2qDxC9b9-23" target="t49rK2WE6GSj2qDxC9b9-30">
          <mxGeometry width="50" height="50" relative="1" as="geometry">
            <mxPoint x="760" y="970" as="sourcePoint" />
            <mxPoint x="860" y="830" as="targetPoint" />
            <Array as="points">
              <mxPoint x="860" y="820" />
              <mxPoint x="860" y="800" />
            </Array>
          </mxGeometry>
        </mxCell>
        <mxCell id="t49rK2WE6GSj2qDxC9b9-29" value="&lt;div&gt;&lt;/div&gt;if(sTakePictureInfo.eCaptureStep == IDLE&lt;span style=&quot;background-color: initial;&quot;&gt;)&lt;/span&gt;" style="text;html=1;align=left;verticalAlign=middle;resizable=0;points=[];autosize=1;strokeColor=none;fillColor=none;fontSize=12;fontFamily=Helvetica;fontColor=#333333;" vertex="1" parent="1">
          <mxGeometry x="870" y="790" width="250" height="30" as="geometry" />
        </mxCell>
        <mxCell id="t49rK2WE6GSj2qDxC9b9-30" value="&lt;div&gt;CapturePicture():&lt;/div&gt;&lt;div&gt;uTriggerCount = 0;&lt;/div&gt;&lt;div&gt;uExpCome = 0;&lt;/div&gt;&lt;div&gt;eCamerStatus = CAMER_STATUS_BUTT;&lt;/div&gt;" style="rounded=0;whiteSpace=wrap;html=1;strokeColor=#666666;fontFamily=Helvetica;fontSize=12;fontColor=#333333;fillColor=#f5f5f5;align=left;" vertex="1" parent="1">
          <mxGeometry x="740" y="830" width="240" height="60" as="geometry" />
        </mxCell>
      </root>
    </mxGraphModel>
  </diagram>
</mxfile>
